<svg height="512pt" viewBox="0 -9 512.00001 512" width="512pt" xmlns="http://www.w3.org/2000/svg"><path d="m409.085938 433.878906h-29.894532c-7.785156 0-14.09375 6.308594-14.09375 14.09375v46.550782h43.988282c12.945312 0 23.4375-10.492188 23.4375-23.4375v-13.769532c0-12.945312-10.496094-23.4375-23.4375-23.4375zm0 0" fill="#e5baa8"/><path d="m386.605469 236.535156h24.414062v257.988282h-24.414062zm0 0" fill="#24465e"/><path d="m266.3125 169.15625c4.800781-2.101562 10.113281-3.265625 15.683594-3.265625 21.6875 0 39.277344 17.589844 39.277344 39.277344 0 21.683593-17.589844 39.273437-39.277344 39.273437-5.570313 0-10.882813-1.160156-15.683594-3.261718h-211.355469c-4.796875 2.101562-10.109375 3.261718-15.683593 3.261718-21.6875 0-39.273438-17.589844-39.273438-39.273437 0-21.6875 17.585938-39.277344 39.273438-39.277344 5.574218 0 10.886718 1.164063 15.683593 3.265625" fill="#ce8d77"/><path d="m288.792969 494.523438h-210.769531v-80.316407c0-15.035156 7.960937-28.21875 19.878906-35.558593 6.359375-3.921876 13.855468-6.179688 21.863281-6.179688h78.738281c8.480469 0 16.667969 1.652344 24.214844 4.714844 16.398438 6.660156 29.71875 19.929687 36.160156 37.191406zm0 0" fill="#e6e6e6"/><path d="m223.378906 378.65625-62.738281 68.75-62.738281-68.75v-.007812c6.359375-3.921876 13.855468-6.179688 21.863281-6.179688h78.738281c8.480469 0 16.667969 1.652344 24.214844 4.714844zm0 0" fill="#ccc"/><path d="m153.226562 372.46875h-33.460937c-23.046875 0-41.742187 18.683594-41.742187 41.742188v80.3125h33.460937v-80.3125c0-23.058594 18.695313-41.742188 41.742187-41.742188zm0 0" fill="#ccc"/><path d="m160.636719 395.472656c-14.054688 0-25.445313-11.394531-25.445313-25.445312v-47.410156h50.890625v47.410156c0 14.050781-11.394531 25.445312-25.445312 25.445312zm0 0" fill="#ce8d77"/><path d="m266.3125 94.882812v146.816407c0 58.359375-47.3125 105.671875-105.675781 105.671875s-105.675781-47.308594-105.675781-105.671875v-105.675781" fill="#e5baa8"/><path d="m159.886719 347.367188c-28.886719-.191407-55.007813-11.984376-73.976563-30.941407-19.121094-19.132812-30.949218-45.542969-30.949218-74.726562v-105.679688h47.578124v105.679688c0 29.183593 6.496094 55.59375 17.015626 74.726562 10.347656 18.824219 24.582031 30.578125 40.332031 30.941407zm0 0" fill="#ce8d77"/><path d="m160.636719 296.976562c-11.574219 0-22.453125-4.507812-30.636719-12.691406-3.0625-3.0625-3.0625-8.027344 0-11.089844 3.066406-3.0625 8.03125-3.0625 11.089844 0 5.222656 5.222657 12.164062 8.097657 19.546875 8.097657 7.378906 0 14.320312-2.875 19.539062-8.097657 3.066407-3.0625 8.03125-3.0625 11.089844 0 3.066406 3.0625 3.066406 8.027344.003906 11.089844-8.183593 8.183594-19.0625 12.691406-30.632812 12.691406zm0 0" fill="#ce8d77"/><path d="m207.425781 232.199219c-4.332031 0-7.84375-3.511719-7.84375-7.84375v-23.871094c0-4.328125 3.511719-7.839844 7.84375-7.839844s7.839844 3.511719 7.839844 7.839844v23.871094c0 4.332031-3.507813 7.84375-7.839844 7.84375zm0 0" fill="#24465e"/><path d="m113.847656 232.199219c-4.332031 0-7.84375-3.511719-7.84375-7.84375v-23.871094c0-4.328125 3.511719-7.839844 7.84375-7.839844 4.332032 0 7.839844 3.511719 7.839844 7.839844v23.871094c0 4.332031-3.507812 7.84375-7.839844 7.84375zm0 0" fill="#24465e"/><path d="m311.074219 0c-16.953125-.0507812-30.707031 13.671875-30.707031 30.609375 0-16.902344-13.707032-30.609375-30.613282-30.609375s-30.609375 13.707031-30.609375 30.609375h-97.136719c-37.03125 0-67.046874 30.019531-67.046874 67.046875v84.875c38.988281.835938 32.730468-46.507812 32.730468-46.507812h148.484375c57.863281 0 104.835938-46.625 105.40625-104.355469.167969-17-13.507812-31.6132815-30.507812-31.667969zm0 0" fill="#24465e"/><path d="m257.054688 1.015625c-2.5-.660156-5.121094-1.015625-7.828126-1.015625-16.902343 0-30.609374 13.707031-30.609374 30.613281h15.648437c.003906-14.203125 9.675781-26.140625 22.789063-29.597656zm0 0" fill="#183549"/><path d="m318.800781 1.015625c-2.496093-.660156-5.121093-1.015625-7.824219-1.015625-16.90625 0-30.613281 13.707031-30.613281 30.613281h15.652344c0-14.203125 9.671875-26.140625 22.785156-29.597656zm0 0" fill="#183549"/><path d="m122.003906 30.613281h26.828125c-37.023437 0-67.042969 30.019531-67.042969 67.042969v71.640625c-4.71875 7.664063-12.878906 13.535156-26.828124 13.238281v-84.878906c0-37.023438 30.019531-67.042969 67.042968-67.042969zm0 0" fill="#183549"/><path d="m180.433594 494.527344-19.792969-47.113282-19.796875 47.113282zm0 0" fill="#e55c5c"/><path d="m160.640625 447.414062 19.792969-23.527343-19.792969-28.414063-19.796875 28.414063zm0 0" fill="#e55c5c"/><path d="m365.097656 461.347656h30.253906c7.585938 0 13.734376-6.148437 13.734376-13.734375 0-7.585937-6.148438-13.734375-13.734376-13.734375h-16.160156c-7.78125 0-14.09375 6.308594-14.09375 14.09375zm0 0" fill="#e5baa8"/><path d="m285.621094 267.902344h226.378906v115.019531h-226.378906zm0 0" fill="#f4d06b"/><g fill="#fff"><path d="m330.53125 317.753906c-5.496094-2.332031-10.238281-4.34375-10.238281-8.671875 0-4.179687 3.558593-6.574219 9.769531-6.574219 4.574219 0 7.125 1.308594 8.984375 2.261719 1.207031.621094 2.164063 1.109375 3.265625 1.109375 3.40625 0 4.878906-4.226562 4.878906-6.382812 0-5.816406-10.765625-7.363282-17.128906-7.363282-10.554688 0-21.835938 4.730469-21.835938 18.011719 0 11.890625 8.941407 15.859375 16.828126 19.363281 6.261718 2.777344 11.671874 5.179688 11.671874 10.910157 0 5.503906-5.003906 7.464843-9.683593 7.464843-5.445313 0-8.40625-2.488281-10.785157-4.488281-1.503906-1.261719-2.796874-2.347656-4.304687-2.347656-2.9375 0-5.320313 3.917969-5.320313 6.472656 0 5.320313 8.878907 11.269531 20.765626 11.269531 13.195312 0 21.390624-7.480468 21.390624-19.523437 0-13.765625-10.125-18.0625-18.257812-21.511719zm0 0"/><path d="m384.28125 296.132812c-.902344-3.019531-4.574219-4.09375-7.707031-4.09375-2.945313 0-6.710938 1.074219-7.617188 4.09375l-17.136719 55.851563c-.109374.429687-.183593.75-.183593.949219 0 3.085937 4.464843 5.054687 7.539062 5.054687 2.324219 0 3.722657-.839843 4.15625-2.496093l3.320313-11.617188h19.933594l3.316406 11.609375c.441406 1.664063 1.839844 2.503906 4.160156 2.503906 3.003906 0 7.542969-2.015625 7.542969-5.054687 0-.242188-.0625-.476563-.132813-.742188zm-.328125 38.164063h-14.753906l7.375-26.035156zm0 0"/><path d="m440.664062 347.347656h-21.398437v-50.960937c0-2.636719-3.027344-3.8125-6.03125-3.8125-2.78125 0-6.03125.996093-6.03125 3.8125v57.703125c0 2.679687 2.757813 3.898437 5.320313 3.898437h28.140624c2.445313 0 3.726563-2.675781 3.726563-5.320312 0-2.5625-1.167969-5.320313-3.726563-5.320313zm0 0"/><path d="m487.089844 347.347656h-24.859375v-17.320312h13.230469c2.5625 0 3.902343-2.367188 3.902343-4.703125 0-2.421875-1.339843-4.875-3.902343-4.875h-13.230469v-17.234375h24.859375c2.296875 0 3.902344-2.222656 3.902344-5.410156 0-2.519532-1.222657-5.230469-3.902344-5.230469h-31.601563c-2.566406 0-5.324219 1.21875-5.324219 3.902343v57.613282c0 2.679687 2.757813 3.902344 5.324219 3.902344h31.601563c2.679687 0 3.902344-2.714844 3.902344-5.234376 0-3.1875-1.605469-5.410156-3.902344-5.410156zm0 0"/></g><path d="m247.460938 494.523438h-10.457032v-21.675782zm0 0" fill="#ccc"/></svg>