<svg id="Capa_1" enable-background="new 0 0 512 512" height="512" viewBox="0 0 512 512" width="512" xmlns="http://www.w3.org/2000/svg"><g><g><g><g><g><g><g><g><path d="m289.476 88.562h-241.081v-70.113c0-6.047 4.902-10.95 10.95-10.95h219.181c6.047 0 10.95 4.902 10.95 10.95z" fill="#b9cbea"/><path d="m278.526 7.5h-63.322c6.047 0 10.95 4.902 10.95 10.95v70.113h63.322v-70.114c0-6.047-4.903-10.949-10.95-10.949z" fill="#a2b9e2"/><g><g><g><g><path d="m312.438 485.287h-287.005v-413.684c0-10.397 8.429-18.826 18.826-18.826h249.353c10.397 0 18.826 8.429 18.826 18.826z" fill="#d8e2f1"/></g></g></g></g><path d="m293.612 52.777h-63.245c10.397 0 18.826 8.429 18.826 18.826v413.684h63.245v-413.684c0-10.398-8.429-18.826-18.826-18.826z" fill="#b9cbea"/><path d="m67.591 369.299h73.406v115.988h-73.406z" fill="#f4fbff"/></g></g></g><g fill="#bed8fb"><path d="m64.813 131.393v-32.281c0-4.266 3.458-7.723 7.723-7.723h32.281c4.266 0 7.723 3.458 7.723 7.723v32.281c0 4.266-3.458 7.723-7.723 7.723h-32.281c-4.265.001-7.723-3.457-7.723-7.723z"/><path d="m145.072 131.393v-32.281c0-4.266 3.458-7.723 7.723-7.723h32.281c4.266 0 7.723 3.458 7.723 7.723v32.281c0 4.266-3.458 7.723-7.723 7.723h-32.281c-4.265.001-7.723-3.457-7.723-7.723z"/><path d="m225.33 131.393v-32.281c0-4.266 3.458-7.723 7.723-7.723h32.281c4.266 0 7.723 3.458 7.723 7.723v32.281c0 4.266-3.458 7.723-7.723 7.723h-32.281c-4.265.001-7.723-3.457-7.723-7.723z"/><path d="m64.813 214.341v-32.281c0-4.266 3.458-7.723 7.723-7.723h32.281c4.266 0 7.723 3.458 7.723 7.723v32.281c0 4.266-3.458 7.723-7.723 7.723h-32.281c-4.265.001-7.723-3.457-7.723-7.723z"/><path d="m145.072 214.341v-32.281c0-4.266 3.458-7.723 7.723-7.723h32.281c4.266 0 7.723 3.458 7.723 7.723v32.281c0 4.266-3.458 7.723-7.723 7.723h-32.281c-4.265.001-7.723-3.457-7.723-7.723z"/><path d="m225.33 214.341v-32.281c0-4.266 3.458-7.723 7.723-7.723h32.281c4.266 0 7.723 3.458 7.723 7.723v32.281c0 4.266-3.458 7.723-7.723 7.723h-32.281c-4.265.001-7.723-3.457-7.723-7.723z"/><path d="m64.813 297.289v-32.281c0-4.266 3.458-7.723 7.723-7.723h32.281c4.266 0 7.723 3.458 7.723 7.723v32.281c0 4.266-3.458 7.723-7.723 7.723h-32.281c-4.265.001-7.723-3.457-7.723-7.723z"/><path d="m145.072 297.289v-32.281c0-4.266 3.458-7.723 7.723-7.723h32.281c4.266 0 7.723 3.458 7.723 7.723v32.281c0 4.266-3.458 7.723-7.723 7.723h-32.281c-4.265.001-7.723-3.457-7.723-7.723z"/><path d="m225.33 297.289v-32.281c0-4.266 3.458-7.723 7.723-7.723h32.281c4.266 0 7.723 3.458 7.723 7.723v32.281c0 4.266-3.458 7.723-7.723 7.723h-32.281c-4.265.001-7.723-3.457-7.723-7.723z"/></g></g></g></g><g><g><path d="m376.644 155.538c0-9.924-8.045-17.968-17.968-17.968h-61.92c-22.839 0-41.354 18.515-41.354 41.354v45.914h145.885v-45.262c0-9.924-8.045-17.968-17.968-17.968h-.605c-3.353-.001-6.07-2.718-6.07-6.07z" fill="#efc984"/><path d="m383.318 161.607h-.605c-3.352 0-6.069-2.717-6.069-6.069 0-9.924-8.045-17.968-17.969-17.968h-33.149v87.268h75.76v-45.262c.001-9.924-8.044-17.969-17.968-17.969z" fill="#eabc6b"/><path d="m282.11 335.824-59.145 17.359c-21.197 6.221-35.757 25.669-35.757 47.76v84.172h282.297v-84.175c0-22.09-14.558-41.537-35.753-47.759l-57.295-16.821z" fill="#4a80aa"/><path d="m433.751 353.181-57.295-16.821-63.468-.361c.087 15.584 10.388 29.264 25.341 33.654l32.101 9.424c21.195 6.222 35.753 25.669 35.753 47.759v58.279h63.322v-84.175c0-22.09-14.559-41.537-35.754-47.759z" fill="#407093"/><path d="m337.376 393.061h-18.039l-16.292 91.916.074.138h50.582z" fill="#dd636e"/><g><g><g><g><g><path d="m360.822 347.692v-52.204h-64.955v52.204c0 17.937 32.477 19.531 32.477 19.531s32.478-1.594 32.478-19.531z" fill="#ffddce"/></g></g></g></g><path d="m401.287 218.813h-12.416c-6.905 0-12.503-5.598-12.503-12.503v-6.843c0-8.995-8.8-15.355-17.341-12.532-19.918 6.583-41.425 6.585-61.344.004l-.023-.008c-8.54-2.821-17.339 3.539-17.339 12.533v6.845c0 6.905-5.598 12.503-12.503 12.503h-12.416v20.446c0 5.224 4.235 9.46 9.46 9.46 1.648 0 2.99 1.291 3.093 2.936 1.994 31.625 28.261 56.662 60.389 56.662 32.129 0 58.395-25.036 60.389-56.662.104-1.645 1.445-2.936 3.093-2.936 5.224 0 9.46-4.235 9.46-9.46v-20.445z" fill="#ffddce"/><path d="m388.871 218.813c-6.905 0-12.503-5.598-12.503-12.503v-6.843c0-8.995-8.8-15.355-17.341-12.532-10.866 3.591-22.205 5.209-33.501 4.882v65.9c-.276 18.244-8.628 34.522-21.631 45.44 7.477 3.308 15.744 5.159 24.448 5.159 32.128 0 58.395-25.036 60.389-56.662.104-1.645 1.445-2.936 3.093-2.936 5.224 0 9.46-4.235 9.46-9.46v-20.446h-12.414z" fill="#ffcbbe"/></g><g fill="#365e7d"><path d="m283.205 332.364-9.25 4.153c-5.28 2.371-6.554 9.292-2.465 13.388l25.617 25.656c3.249 3.163 8.364 3.358 11.844.451l20.087-16.779-34.246-25.59c-3.344-2.499-7.779-2.988-11.587-1.279z"/><path d="m361.879 333.803-32.841 25.43 18.879 16.142c3.459 2.957 8.597 2.809 11.879-.344l25.629-24.959c4.189-4.079 2.937-11.099-2.404-13.479l-9.429-4.202c-3.866-1.722-8.366-1.179-11.713 1.412z"/></g></g><path d="m329.038 359.233-19.779 16.519 10.078 17.309h18.039l10.078-18.061z" fill="#e28086"/></g><path d="m488.135 504.5h-464.27c-9.027 0-16.345-7.318-16.345-16.345 0-9.027 7.318-16.345 16.345-16.345h464.269c9.027 0 16.345 7.318 16.345 16.345.001 9.028-7.317 16.345-16.344 16.345z" fill="#365e7d"/></g><g><path d="m120.04 99.112c0-8.394-6.829-15.223-15.222-15.223h-32.281c-8.394 0-15.223 6.829-15.223 15.223v32.282c0 8.394 6.83 15.223 15.223 15.223h32.282c8.394 0 15.222-6.829 15.222-15.223v-32.282zm-14.998 32.281c0 .124-.101.224-.224.224h-32.281c-.124 0-.225-.101-.225-.224v-32.281c0-.124.101-.224.225-.224h32.282c.123 0 .224.101.224.224v32.281z"/><path d="m200.299 99.112c0-8.394-6.829-15.223-15.222-15.223h-32.282c-8.394 0-15.223 6.829-15.223 15.223v32.282c0 8.394 6.83 15.223 15.223 15.223h32.282c8.394 0 15.222-6.829 15.222-15.223zm-14.998 32.281c0 .124-.101.224-.224.224h-32.282c-.124 0-.225-.101-.225-.224v-32.281c0-.124.101-.224.225-.224h32.282c.123 0 .224.101.224.224z"/><path d="m120.04 182.06c0-8.394-6.829-15.223-15.222-15.223h-32.281c-8.394 0-15.223 6.829-15.223 15.223v32.282c0 8.394 6.83 15.223 15.223 15.223h32.282c8.394 0 15.222-6.829 15.222-15.223v-32.282zm-14.998 32.281c0 .124-.101.224-.224.224h-32.281c-.124 0-.225-.101-.225-.224v-32.281c0-.124.101-.224.225-.224h32.282c.123 0 .224.101.224.224v32.281z"/><path d="m200.299 182.06c0-8.394-6.829-15.223-15.222-15.223h-32.282c-8.394 0-15.223 6.829-15.223 15.223v32.282c0 8.394 6.83 15.223 15.223 15.223h32.282c8.394 0 15.222-6.829 15.222-15.223zm-14.998 32.281c0 .124-.101.224-.224.224h-32.282c-.124 0-.225-.101-.225-.224v-32.281c0-.124.101-.224.225-.224h32.282c.123 0 .224.101.224.224z"/><path d="m104.818 249.785h-32.281c-8.394 0-15.223 6.829-15.223 15.223v32.282c0 8.394 6.83 15.223 15.223 15.223h32.282c8.394 0 15.222-6.829 15.222-15.223v-32.282c-.001-8.394-6.829-15.223-15.223-15.223zm.224 47.505c0 .124-.101.224-.224.224h-32.281c-.124 0-.225-.101-.225-.224v-32.282c0-.124.101-.224.225-.224h32.282c.123 0 .224.101.224.224v32.282z"/><path d="m185.077 249.785h-32.282c-8.394 0-15.223 6.829-15.223 15.223v32.282c0 8.394 6.83 15.223 15.223 15.223h32.282c8.394 0 15.222-6.829 15.222-15.223v-32.282c0-8.394-6.828-15.223-15.222-15.223zm.224 47.505c0 .124-.101.224-.224.224h-32.282c-.124 0-.225-.101-.225-.224v-32.282c0-.124.101-.224.225-.224h32.282c.123 0 .224.101.224.224z"/><path d="m488.134 464.311h-11.13v-63.371c0-25.245-16.918-47.843-41.141-54.955l-45.42-13.334c-1.28-1.201-2.756-2.189-4.369-2.907l-9.43-4.202c-2.668-1.188-5.512-1.717-8.324-1.629v-21.145c14.925-10.878 25.322-27.679 27.575-47.043 7.393-1.827 12.891-8.517 12.891-16.466v-20.446-39.238c0-13.78-11.001-25.038-24.682-25.456-.739-13.385-11.862-24.049-25.429-24.049h-61.92c-5.705 0-11.18.992-16.274 2.797.047-.486.075-.977.075-1.475v-32.28c0-8.394-6.829-15.223-15.222-15.223h-32.282c-8.394 0-15.223 6.829-15.223 15.223v32.282c0 8.394 6.83 15.223 15.223 15.223h27.102c-5.051 5.715-8.793 12.61-10.738 20.221h-16.364c-8.394 0-15.223 6.829-15.223 15.223v32.282c0 8.394 6.83 15.223 15.223 15.223h14.848v9.694c0 3.974 1.374 7.633 3.671 10.527h-18.52c-8.394 0-15.223 6.829-15.223 15.223v32.282c0 8.394 6.83 15.222 15.223 15.222h32.282c8.394 0 15.222-6.829 15.222-15.222v-1.155c2.432 2.402 5.044 4.618 7.81 6.634v21.104c-2.788-.067-5.603.469-8.235 1.651l-9.249 4.153c-1.603.719-3.068 1.705-4.339 2.901l-45.692 13.411c-24.225 7.11-41.144 29.708-41.144 54.955v5.092c0 4.142 3.357 7.499 7.499 7.499s7.499-3.358 7.499-7.499v-5.092c0-18.635 12.488-35.316 30.37-40.564l37.414-10.981c.767 2.121 1.999 4.109 3.693 5.806l25.619 25.653c.025.025.05.05.075.074 3.172 3.088 7.28 4.65 11.402 4.649.962 0 1.924-.089 2.876-.26l5.319 9.136-12.381 69.852h-57.454v-16.293c0-4.142-3.357-7.499-7.499-7.499s-7.499 3.358-7.499 7.499v16.293h-31.932v-23.217c0-4.142-3.357-7.499-7.499-7.499s-7.499 3.358-7.499 7.499v23.217h-31.212v-87.513h.942c4.142 0 7.499-3.358 7.499-7.499 0-4.142-3.357-7.499-7.499-7.499h-90.29c-4.142 0-7.499 3.358-7.499 7.499 0 4.142 3.357 7.499 7.499 7.499h.942v87.513h-27.159v-392.708c0-6.246 5.082-11.327 11.327-11.327h249.353c6.246 0 11.326 5.081 11.326 11.327v30.41c0 4.142 3.357 7.499 7.499 7.499s7.499-3.358 7.499-7.499v-30.41c0-13.376-10.03-24.446-22.962-26.103v-27.051c.001-10.173-8.276-18.449-18.449-18.449h-219.18c-10.173 0-18.448 8.276-18.448 18.449v27.051c-12.933 1.657-22.963 12.727-22.963 26.103v393.455c-10.288 2.644-17.913 11.996-17.913 23.097 0 13.148 10.696 23.845 23.845 23.845h464.269c13.148 0 23.845-10.697 23.845-23.845s-10.697-23.844-23.846-23.844zm-428.789-449.312h219.18c1.903 0 3.451 1.548 3.451 3.45v26.828h-226.081v-26.828c0-1.903 1.548-3.45 3.45-3.45zm402.661 385.941v63.371h-31.956v-16.293c0-4.142-3.357-7.499-7.499-7.499s-7.499 3.358-7.499 7.499v16.293h-57.423l-12.401-69.929 5.392-9.663c1.004.191 2.02.295 3.037.295 4.092 0 8.181-1.543 11.372-4.609l25.63-24.958c1.762-1.715 3.039-3.771 3.822-5.978l37.159 10.909c17.878 5.248 30.366 21.928 30.366 40.562zm-138.358-15.378-4.722-8.111 10.056-8.4 8.939 7.644-4.948 8.866h-9.325zm46.892-46.32 9.432 4.203c.477.212.617.869.222 1.255l-25.593 24.923c-.504.481-1.281.504-1.81.053l-11.876-10.155 25.556-19.788c1.165-.903 2.725-1.09 4.069-.491zm-11.864-194.173c5.773 0 10.469 4.696 10.469 10.469 0 7.481 6.086 13.568 13.568 13.568h.605c5.773 0 10.469 4.696 10.469 10.469v31.738h-4.917c-2.759 0-5.004-2.244-5.004-5.003v-6.843c0-11.964-9.821-20.72-20.633-20.72-2.188 0-4.398.353-6.561 1.067-18.26 6.036-38.376 6.038-56.661-.004-13.407-4.43-27.191 5.533-27.191 19.654v6.846c0 2.759-2.245 5.003-5.004 5.003h-4.917v-32.389c0-18.667 15.187-33.855 33.856-33.855zm-125.847-13.676v-32.281c0-.124.101-.224.225-.224h32.282c.123 0 .224.101.224.224v32.282c0 .124-.101.224-.224.224h-32.282c-.124-.001-.225-.101-.225-.225zm0 82.948v-32.281c0-.124.101-.224.225-.224h14.848v32.73h-14.848c-.124-.001-.225-.101-.225-.225zm32.73 82.949c0 .124-.101.224-.224.224h-32.282c-.124 0-.225-.1-.225-.224v-32.282c0-.124.101-.224.225-.224h29.43c.812 3.152 1.84 6.215 3.075 9.169v23.337zm9.881-46.11c-.355-5.585-5.002-9.961-10.578-9.961-1.081 0-1.961-.88-1.961-1.961v-12.946h4.917c11.029 0 20.002-8.973 20.002-20.002v-6.846c0-3.846 3.748-6.647 7.511-5.404 21.298 7.036 44.755 7.034 66.049-.005 3.686-1.217 7.489 1.517 7.489 5.412v6.843c0 11.029 8.973 20.002 20.002 20.002h4.917v12.946c0 1.081-.88 1.961-1.961 1.961-5.577 0-10.223 4.375-10.578 9.964-1.755 27.832-24.993 49.634-52.905 49.634-27.911 0-51.149-21.802-52.904-49.637zm52.905 64.635c8.795 0 17.225-1.695 24.977-4.771v19.899l-24.365 18.867-25.591-19.122v-19.643c7.753 3.075 16.183 4.77 24.979 4.77zm-51.547 28.791c-.406-.406-.221-1.046.229-1.247l9.248-4.152c1.323-.592 2.864-.424 4.028.444l26.644 19.91-12.806 10.696c-.524.437-1.285.416-1.782-.047zm48.826 55.954h5.466l11.306 63.751h-28.071zm-250.534-23.762h58.407v87.513h-58.407zm413.044 120.203h-464.268c-4.878 0-8.846-3.968-8.846-8.846s3.968-8.845 8.846-8.845h464.269c4.878 0 8.846 3.968 8.846 8.845s-3.969 8.846-8.847 8.846z"/></g></g></svg>