<svg id="Capa_1" enable-background="new 0 0 512.738 512.738" height="512" viewBox="0 0 512.738 512.738" width="512" xmlns="http://www.w3.org/2000/svg"><g><path d="m263.86 105.614c18.945-3.68 32.286-20.761 30.924-40.51-1.313-19.044-16.664-34.395-35.708-35.708-10.81-.742-21.106 2.898-28.994 10.262-7.778 7.261-12.24 17.525-12.24 28.162 0 4.143 3.358 7.5 7.5 7.5s7.5-3.357 7.5-7.5c0-6.59 2.655-12.697 7.475-17.196 4.815-4.495 11.113-6.719 17.727-6.263 11.612.801 20.974 10.162 21.774 21.774.889 12.887-8.445 23.911-21.248 25.101-5.536.513-9.711 5.063-9.711 10.585v12.465c0 4.143 3.358 7.5 7.5 7.5 4.143 0 7.5-3.357 7.5-7.5v-8.672z"/><path d="m256.36 132.085c-4.142 0-7.5 3.357-7.5 7.5v5.04c0 4.143 3.358 7.5 7.5 7.5 4.143 0 7.5-3.357 7.5-7.5v-5.04c0-4.143-3.358-7.5-7.5-7.5z"/><path d="m498.568 337.401h-10.613l-16.232-72.804h9.553c17.022 0 30.871-13.849 30.871-30.871 0-17.021-13.849-30.87-30.871-30.87h-23.318l-1.999-8.965c-1.896-8.501-9.021-14.213-17.729-14.213-8.71 0-15.835 5.712-17.73 14.213l-1.999 8.965h-98.111l-14.122-18.327v-19.786c24.125-16.15 40.041-43.647 40.041-74.795 0-11.01-1.987-21.799-5.907-32.065-1.478-3.872-5.814-5.81-9.682-4.332-3.87 1.478-5.81 5.813-4.332 9.682 3.266 8.553 4.921 17.541 4.921 26.716 0 41.326-33.622 74.948-74.948 74.948s-74.948-33.622-74.948-74.948 33.62-74.949 74.947-74.949c20.826 0 40.184 8.359 54.506 23.538 2.845 3.014 7.591 3.15 10.603.308 3.013-2.843 3.15-7.59.308-10.603-17.188-18.213-40.419-28.243-65.417-28.243-49.597 0-89.948 40.351-89.948 89.948 0 31.148 15.917 58.645 40.041 74.795v19.786l-14.121 18.326h-97.113l-1.999-8.964c-1.895-8.501-9.021-14.213-17.73-14.213s-15.835 5.712-17.73 14.213l-1.999 8.964h-24.317c-17.022 0-30.871 13.849-30.871 30.871s13.849 30.871 30.871 30.871h10.553l-16.232 72.804h-12.294c-6.571 0-11.917 5.346-11.917 11.917v1.68c0 40.769 33.168 73.937 73.937 73.937s73.937-33.168 73.937-73.937v-1.68c0-6.571-5.346-11.917-11.917-11.917h-12.293l-16.232-72.804h81.016v26.957c0 4.143 3.358 7.5 7.5 7.5s7.5-3.357 7.5-7.5v-28.214c0-7.578-6.165-13.743-13.743-13.743h-85.617l-7.077-31.742h97.457c2.326 0 4.521-1.079 5.941-2.922l17.932-23.271c1.011-1.313 1.559-2.922 1.559-4.578v-14.238c10.739 4.539 22.535 7.051 34.907 7.051s24.169-2.512 34.907-7.051v14.238c0 1.656.548 3.266 1.56 4.578l17.933 23.272c1.42 1.843 3.614 2.922 5.94 2.922h98.456l-7.077 31.741h-86.617c-7.577 0-13.742 6.165-13.742 13.743v183.566h-43.861v-65.739c0-4.143-3.357-7.5-7.5-7.5-4.142 0-7.5 3.357-7.5 7.5v65.739h-43.859v-123.389c0-4.143-3.358-7.5-7.5-7.5s-7.5 3.357-7.5 7.5v123.391h-38.664c-10.738 0-19.475 8.736-19.475 19.475v31.356h-3.699c-4.142 0-7.5 3.357-7.5 7.5s3.358 7.5 7.5 7.5h257.393c4.143 0 7.5-3.357 7.5-7.5s-3.357-7.5-7.5-7.5h-3.699v-31.356c0-10.738-8.735-19.475-19.474-19.475h-39.664v-182.31h82.015l-16.232 72.804h-10.613c-7.498 0-13.598 6.1-13.598 13.597 0 40.77 33.168 73.938 73.938 73.938 40.769 0 73.937-33.168 73.937-73.938-.001-7.498-6.1-13.598-13.598-13.598zm-426.166-140.246c.48-2.154 2.142-2.477 3.089-2.477s2.609.322 3.089 2.477l1.271 5.7h-8.72zm3.089 212.78c-32.03 0-58.173-25.68-58.92-57.533h15.177c.012 0 .024.002.035.002.008 0 .015-.002.023-.002h87.369c.008 0 .015.002.023.002.012 0 .024-.002.035-.002h15.177c-.746 31.853-26.889 57.533-58.919 57.533zm34.358-72.534h-68.716l16.232-72.804h36.252zm-19.577-87.803h-58.828c-8.751 0-15.871-7.12-15.871-15.871s7.12-15.871 15.871-15.871h30.202.017 21.533zm276.585 216.784v31.356h-219.995v-31.356c0-2.468 2.007-4.475 4.475-4.475h211.046c2.467 0 4.474 2.007 4.474 4.475zm68.282-269.227c.48-2.154 2.142-2.477 3.09-2.477.947 0 2.608.322 3.089 2.477l1.271 5.701h-8.721zm-4.616 20.701h50.752c8.751 0 15.871 7.119 15.871 15.87s-7.12 15.871-15.871 15.871h-57.829zm7.706 192.08c-32.03 0-58.175-25.681-58.921-57.534h33.49c4.143 0 7.5-3.357 7.5-7.5s-3.357-7.5-7.5-7.5h-8.928l16.232-72.804h36.252l16.232 72.804h-27.826c-4.143 0-7.5 3.357-7.5 7.5s3.357 7.5 7.5 7.5h52.389c-.746 31.853-26.891 57.534-58.92 57.534z"/></g></svg>